<svg xmlns="http://www.w3.org/2000/svg" xmlns:xlink="http://www.w3.org/1999/xlink" viewBox="0 0 32 32" version="1.1">
<g id="surface1">
<path style=" " d="M 12.886719 3 C 10.949219 3 9.289063 4.386719 8.945313 6.292969 L 8.820313 7 L 6 7 C 3.789063 7 2 8.789063 2 11 L 2 24 C 2 26.210938 3.789063 28 6 28 L 26 28 C 28.210938 28 30 26.210938 30 24 L 30 11 C 30 8.789063 28.210938 7 26 7 L 23.179688 7 L 23.050781 6.292969 C 22.710938 4.386719 21.050781 3 19.113281 3 Z M 12.886719 5 L 19.113281 5 C 20.085938 5 20.914063 5.691406 21.085938 6.648438 L 21.214844 7.351563 C 21.382813 8.304688 22.210938 9 23.179688 9 L 26 9 C 27.101563 9 28 9.898438 28 11 L 28 24 C 28 25.101563 27.101563 26 26 26 L 6 26 C 4.898438 26 4 25.101563 4 24 L 4 11 C 4 9.898438 4.898438 9 6 9 L 8.820313 9 C 9.789063 9 10.617188 8.304688 10.789063 7.351563 L 10.917969 6.648438 C 11.085938 5.695313 11.914063 5 12.886719 5 Z M 16 11 C 12.410156 11 9.5 13.910156 9.5 17.5 C 9.5 21.089844 12.410156 24 16 24 C 19.589844 24 22.5 21.089844 22.5 17.5 C 22.5 13.910156 19.589844 11 16 11 Z M 16 13 C 18.480469 13 20.5 15.019531 20.5 17.5 C 20.5 19.980469 18.480469 22 16 22 C 13.519531 22 11.5 19.980469 11.5 17.5 C 11.5 15.019531 13.519531 13 16 13 Z "></path>
</g>
</svg>